# xmcd
#
# Track frame offsets: 
#        150
#        11237
#        19227
#        35617
#        46732
#        60270
#        75240
#        87480
#        103960
#        114007
#        129540
#        139502
#        151955
#        163607
#        173820
#        186095
#        202907
#        216890
#        231480
#        243592
#        256082
#        266692
#        281680
#        291900
#        309845
#
# Disc length: 4275 seconds
#
# Revision: 0
# Processed by: cddbd v1.5.2PL0 Copyright (c) Steve Scherf et al.
# Submitted via: ExactAudioCopy v1.0b1
#
DISCID=5510b119
DTITLE=Buddy Guy - The Complete Chess Studio Recordings [CD2)
DYEAR=1993
DGENRE=Blues
TTITLE0=Worried Mind
TTITLE1=Instrumental
TTITLE2=Moanin'
TTITLE3=I Dig Your Wig
TTITLE4=My Time After A While
TTITLE5=Night Flight
TTITLE6=Crazy Love
TTITLE7=Every Girl I see
TTITLE8=Too Many Ways
TTITLE9=Leave My Girl Alone
TTITLE10=Got To Use Your Head
TTITLE11=Keep It To Myself
TTITLE12=My Mother
TTITLE13=She Suits Me To A Tee
TTITLE14=Mother In Law Blues
TTITLE15=Buddy's Groove
TTITLE16=Going To School
TTITLE17=I Cry And Sing The Blues
TTITLE18=Goin' Home
TTITLE19=I Suffer With The Blues
TTITLE20=Lip Lap Louie
TTITLE21=My Time After A While (alt)
TTITLE22=Too Many Ways (alt)
TTITLE23=Keep It To Myself (alt)
TTITLE24=I Didn't Know My Mother (alt)
EXTD=
EXTT0=
EXTT1=
EXTT2=
EXTT3=
EXTT4=
EXTT5=
EXTT6=
EXTT7=
EXTT8=
EXTT9=
EXTT10=
EXTT11=
EXTT12=
EXTT13=
EXTT14=
EXTT15=
EXTT16=
EXTT17=
EXTT18=
EXTT19=
EXTT20=
EXTT21=
EXTT22=
EXTT23=
EXTT24=
PLAYORDER=
